<svg version="1.1" xmlns="http://www.w3.org/2000/svg" xmlns:xlink="http://www.w3.org/1999/xlink" width="98" height="98"><defs/><g><path fill="rgb(150,150,150)" stroke="none" paint-order="stroke fill markers" fill-rule="evenodd" d=" M 92.56380844116211 29.21496170759201 C 92.56380844116211 29.21496170759201 89.03299140930176 24.58188784122467 89.03299140930176 24.58188784122467 C 89.03754043579102 24.57419991493225 89.04114532470703 24.566328942775726 89.04569435119629 24.558824062347412 C 89.1946964263916 24.31207823753357 89.33288383483887 24.060756266117096 89.46154403686523 23.805773377418518 C 89.4869499206543 23.755618810653687 89.5114974975586 23.70528119802475 89.53613090515137 23.654760539531708 C 89.65311813354492 23.413689136505127 89.76332473754883 23.170421183109283 89.8622875213623 22.923492312431335 C 89.88820838928223 22.859060168266296 89.91069602966309 22.79407888650894 89.93532943725586 22.729463696479797 C 90.0091438293457 22.53506898880005 90.07746505737305 22.33920991420746 90.14020729064941 22.14170342683792 C 90.1706771850586 22.0463365316391 90.20131874084473 21.951335728168488 90.22912788391113 21.85541969537735 C 90.28723526000977 21.65461838245392 90.33847618103027 21.45216965675354 90.38533973693848 21.249171793460846 C 90.41117477416992 21.13714772462845 90.43623733520508 21.025306701660156 90.45872497558594 20.91291654109955 C 90.50018119812012 20.704244256019592 90.5364875793457 20.494839787483215 90.56627082824707 20.284520089626312 C 90.58352279663086 20.162794589996338 90.59665489196777 20.04088604450226 90.60995864868164 19.91861140727997 C 90.62600898742676 19.771259486675262 90.63854026794434 19.62372452020645 90.64883995056152 19.47582346200943 C 90.66077041625977 19.303577303886414 90.66892433166504 19.131331145763397 90.67313003540039 18.958901941776276 C 90.6767349243164 18.809170424938202 90.6778507232666 18.65980499982834 90.67570495605469 18.510073482990265 C 90.67390251159668 18.39255803823471 90.67278671264648 18.27522563934326 90.66737937927246 18.157893240451813 C 90.65742301940918 17.941166937351227 90.64034271240234 17.72480672597885 90.61819839477539 17.508812606334686 C 90.60712623596191 17.401547729969025 90.59390830993652 17.29483199119568 90.57974624633789 17.187567114830017 C 90.54987716674805 16.960041105747223 90.51571655273438 16.73288118839264 90.47194290161133 16.506819546222687 C 90.45692253112793 16.429574191570282 90.43821144104004 16.353244066238403 90.42164611816406 16.276181757450104 C 90.37838745117188 16.07464826107025 90.32963562011719 15.87421303987503 90.27530479431152 15.675059139728546 C 90.25693702697754 15.607698261737823 90.24062919616699 15.5403373837471 90.22105979919434 15.473342597484589 C 90.14947700500488 15.228610277175903 90.06742286682129 14.986440598964691 89.97918891906738 14.745918333530426 C 89.95549964904785 14.681669235229492 89.93155288696289 14.617420136928558 89.90674781799316 14.553537130355835 C 89.81121826171875 14.307157397270203 89.70787811279297 14.063157260417938 89.5945816040039 13.822634994983673 C 89.57415390014648 13.77943617105484 89.55209541320801 13.737152576446533 89.53115272521973 13.694136798381805 C 89.41382217407227 13.45324844121933 89.28868103027344 13.214922726154327 89.15324020385742 12.98099011182785 C 89.14276885986328 12.962868571281433 89.13324165344238 12.9441978931427 89.12259864807129 12.925893306732178 C 88.97951889038086 12.681893169879913 88.82390785217285 12.443567454814911 88.66117286682129 12.208719611167908 C 88.63156127929688 12.16606992483139 88.60246467590332 12.123237192630768 88.57233810424805 12.080953598022461 C 88.40986061096191 11.853427588939667 88.23845672607422 11.630477726459503 88.0572681427002 11.412653148174286 C 88.02516746520996 11.374213516712189 87.99186515808105 11.336689114570618 87.95924949645996 11.298432528972626 C 87.76750373840332 11.07438439130783 87.5687198638916 10.85399717092514 87.35671806335449 10.641847014427185 C 87.1446304321289 10.42969685792923 86.92438888549805 10.230909049510956 86.70019912719727 10.03907698392868 C 86.66209030151367 10.00649482011795 86.62441062927246 9.9731804728508 86.58604431152344 9.94096440076828 C 86.36837768554688 9.759748995304108 86.14547538757324 9.588235020637512 85.91793823242188 9.425873339176178 C 85.87562370300293 9.395670771598816 85.8328800201416 9.36638343334198 85.79030799865723 9.336913049221039 C 85.55547523498535 9.174002230167389 85.31712341308594 9.018413245677948 85.07310676574707 8.875271379947662 C 85.05499649047852 8.86465471982956 85.0363712310791 8.855319380760193 85.01817512512207 8.84470272064209 C 84.78428649902344 8.709248781204224 84.54619216918945 8.58404541015625 84.30517959594727 8.466713011264801 C 84.26226425170898 8.4456627368927 84.21986389160156 8.423697233200073 84.17669105529785 8.403196096420288 C 83.936279296875 8.289890706539154 83.69252014160156 8.186652839183807 83.44618606567383 8.090919852256775 C 83.38215637207031 8.066025614738464 83.31804084777832 8.042229652404785 83.2536678314209 8.018433690071106 C 83.01325607299805 7.930205583572388 82.77129936218262 7.848201036453247 82.52651023864746 7.776630103588104 C 82.45964813232422 7.757044196128845 82.39218521118164 7.74075311422348 82.32497978210449 7.7222654819488525 C 82.12576675415039 7.667900860309601 81.9254379272461 7.619210660457611 81.7239933013916 7.575828790664673 C 81.64700317382812 7.559354662895203 81.57061386108398 7.5405009388923645 81.49336624145508 7.525491178035736 C 81.26754570007324 7.481926262378693 81.04035186767578 7.447696685791016 80.81272888183594 7.417677164077759 C 80.70578384399414 7.4035826325416565 80.5990104675293 7.39040333032608 80.4917221069336 7.379420578479767 C 80.27577209472656 7.357088983058929 80.05947875976562 7.339882671833038 79.84284210205078 7.330181241035461 C 79.72542572021484 7.324689865112305 79.60826683044434 7.323591589927673 79.49076461791992 7.321761131286621 C 79.34124755859375 7.319564580917358 79.19173049926758 7.32066285610199 79.04212760925293 7.3245068192481995 C 78.86960792541504 7.328533828258514 78.69760322570801 7.336587846279144 78.52525520324707 7.348668873310089 C 78.37745475769043 7.358919441699982 78.2299976348877 7.371549606323242 78.08262634277344 7.387474596500397 C 77.96048927307129 7.400836944580078 77.83860969543457 7.414016246795654 77.7169017791748 7.431222558021545 C 77.50661659240723 7.461059033870697 77.29718971252441 7.4973021149635315 77.08862113952637 7.5388535261154175 C 76.97618293762207 7.56136816740036 76.86443138122559 7.586445450782776 76.75259399414062 7.6122549176216125 C 76.54951858520508 7.65911465883255 76.34721565246582 7.710367500782013 76.14654350280762 7.768393039703369 C 76.05058479309082 7.7963990569114685 75.95548439025879 7.826967716217041 75.86012649536133 7.857353329658508 C 75.66280174255371 7.9201380610466 75.4669361114502 7.988597214221954 75.27261543273926 8.06236469745636 C 75.2079849243164 8.087075889110565 75.14301109313965 8.109590530395508 75.07880973815918 8.135399997234344 C 74.83187484741211 8.234427809715271 74.58854484558105 8.344621419906616 74.34770393371582 8.461587727069855 C 74.2972354888916 8.48629891872406 74.24685287475586 8.51082706451416 74.19672775268555 8.536270439624786 C 73.9416389465332 8.66495168209076 73.69049835205078 8.803151309490204 73.44382095336914 8.952333688735962 C 73.4362678527832 8.956909835338593 73.42837142944336 8.960387706756592 73.42081832885742 8.964963853359222 C 73.42081832885742 8.964963853359222 68.78939437866211 5.433459997177124 68.78939437866211 5.433459997177124 C 64.04604721069336 1.8164737224578857 57.28816795349121 2.2702444195747375 53.07036209106445 6.48926854133606 C 53.07036209106445 6.48926854133606 6.491334915161133 53.08249497413635 6.491334915161133 53.08249497413635 C 2.2737865447998047 57.30133605003357 1.8201713562011719 64.06103676557541 5.43596076965332 68.80595165491104 C 5.43596076965332 68.80595165491104 8.966176986694336 73.43902552127838 8.966176986694336 73.43902552127838 C 8.961284637451172 73.44707953929901 8.957508087158203 73.45568269491196 8.952615737915039 73.46355366706848 C 8.804386138916016 73.70901817083359 8.666885375976562 73.95924186706543 8.538825988769531 74.21294343471527 C 8.51264762878418 74.26456236839294 8.487327575683594 74.31673043966293 8.462007522583008 74.36871546506882 C 8.345792770385742 74.60813945531845 8.236186981201172 74.84994304180145 8.137739181518555 75.09559059143066 C 8.111045837402344 75.16185319423676 8.087785720825195 75.22903102636337 8.062379837036133 75.29565972089767 C 7.989767074584961 75.48730874061584 7.9225616455078125 75.68005603551865 7.860591888427734 75.8746337890625 C 7.8284912109375 75.97475987672806 7.796733856201172 76.07470291852951 7.767551422119141 76.17556118965149 C 7.710903167724609 76.3721524477005 7.660606384277344 76.57020807266235 7.614686965942383 76.76881283521652 C 7.588422775268555 76.88248431682587 7.563016891479492 76.995789706707 7.540271759033203 77.11001032590866 C 7.49915885925293 77.31721824407578 7.463024139404297 77.52534139156342 7.433412551879883 77.73419672250748 C 7.415988922119141 77.8575696349144 7.402599334716797 77.98112559318542 7.389123916625977 78.10486459732056 C 7.373416900634766 78.24965387582779 7.361143112182617 78.39480924606323 7.351015090942383 78.53996461629868 C 7.338741302490234 78.71513950824738 7.330415725708008 78.89013135433197 7.326295852661133 79.06548929214478 C 7.322690963745117 79.21320730447769 7.321575164794922 79.3607422709465 7.323720932006836 79.50846028327942 C 7.325523376464844 79.6270740032196 7.326725006103516 79.74532163143158 7.332218170166016 79.86375230550766 C 7.342002868652344 80.07974642515182 7.359169006347656 80.29555749893188 7.381141662597656 80.51081943511963 C 7.392299652099609 80.61881649494171 7.405603408813477 80.72626441717148 7.419765472412109 80.83371233940125 C 7.449634552001953 81.06105530261993 7.483795166015625 81.2876660823822 7.527311325073242 81.51299554109573 C 7.542417526245117 81.59079003334045 7.561300277709961 81.66766929626465 7.577951431274414 81.74509769678116 C 7.621210098266602 81.9464481472969 7.6698760986328125 82.14651727676392 7.72412109375 82.3454881310463 C 7.742488861083984 82.41266596317291 7.758796691894531 82.48020988702774 7.778451919555664 82.54720467329025 C 7.849863052368164 82.79175394773483 7.931831359863281 83.03374058008194 8.020065307617188 83.2740797996521 C 8.043840408325195 83.33887803554535 8.067873001098633 83.40331017971039 8.092935562133789 83.46755927801132 C 8.188465118408203 83.71375596523285 8.291633605957031 83.95757305622101 8.404844284057617 84.19791227579117 C 8.425271987915039 84.24111109972 8.447416305541992 84.28339469432831 8.468273162841797 84.32641047239304 C 8.585689544677734 84.56748187541962 8.710830688476562 84.80562454462051 8.846185684204102 85.03955715894699 C 8.856742858886719 85.05767869949341 8.86618423461914 85.07634937763214 8.876827239990234 85.09465396404266 C 9.01999282836914 85.33865410089493 9.175518035888672 85.57697981595993 9.338253021240234 85.81201070547104 C 9.367864608764648 85.85466039180756 9.396961212158203 85.89731007814407 9.427087783813477 85.93959367275238 C 9.58956527709961 86.16730272769928 9.760969161987305 86.39025259017944 9.942243576049805 86.60789412260056 C 9.974258422851562 86.64633375406265 10.007560729980469 86.68385815620422 10.040176391601562 86.72193169593811 C 10.23200798034668 86.94634592533112 10.430706024169922 87.1667331457138 10.642707824707031 87.37888330221176 C 10.854881286621094 87.59085041284561 11.075122833251953 87.78982126712799 11.299312591552734 87.98147028684616 C 11.337421417236328 88.014235496521 11.375015258789062 88.04754984378815 11.413467407226562 88.07958287000656 C 11.631048202514648 88.26079827547073 11.854036331176758 88.43231225013733 12.081573486328125 88.59485697746277 C 12.123802185058594 88.62487649917603 12.166545867919922 88.65416383743286 12.209117889404297 88.6836342215538 C 12.444036483764648 88.84654504060745 12.682302474975586 89.0021340250969 12.926319122314453 89.14527589082718 C 12.944429397583008 89.15589255094528 12.963140487670898 89.16541093587875 12.981250762939453 89.17584455013275 C 13.215139389038086 89.31129848957062 13.45323371887207 89.43650186061859 13.694246292114258 89.55401730537415 C 13.737161636352539 89.57488453388214 13.779561996459961 89.59703308343887 13.822734832763672 89.61735117435455 C 14.06297492980957 89.73065656423569 14.306734085083008 89.83389443159103 14.552810668945312 89.92944437265396 C 14.617097854614258 89.95433861017227 14.681556701660156 89.97850066423416 14.746273040771484 90.00229662656784 C 14.986427307128906 90.09052473306656 15.228384017944336 90.1725292801857 15.472915649414062 90.24391716718674 C 15.539863586425781 90.263503074646 15.60732650756836 90.27997720241547 15.674531936645508 90.29828178882599 C 15.873573303222656 90.35264641046524 16.073644638061523 90.40133661031723 16.27474594116211 90.44453543424606 C 16.352251052856445 90.46119260787964 16.42906951904297 90.48004633188248 16.506746292114258 90.4950560927391 C 16.73213768005371 90.53862100839615 16.95864486694336 90.57285058498383 17.185752868652344 90.60268706083298 C 17.293384552001953 90.61696463823318 17.400758743286133 90.63014394044876 17.508647918701172 90.64130973815918 C 17.723997116088867 90.66345828771591 17.939517974853516 90.6804815530777 18.155467987060547 90.69036602973938 C 18.273914337158203 90.69585740566254 18.392189025878906 90.69713872671127 18.51072120666504 90.69878613948822 C 18.658349990844727 90.70098268985748 18.805892944335938 90.69970136880875 18.953521728515625 90.69622349739075 C 19.128873825073242 90.69201344251633 19.303796768188477 90.68377637863159 19.47897720336914 90.67151230573654 C 19.624116897583008 90.66126173734665 19.7691707611084 90.6491807103157 19.91396713256836 90.63343876600266 C 20.037649154663086 90.62007641792297 20.161073684692383 90.60653102397919 20.284412384033203 90.58914166688919 C 20.493324279785156 90.55948823690414 20.701292037963867 90.52342820167542 20.908573150634766 90.48224288225174 C 21.022642135620117 90.45954519510269 21.13593864440918 90.43410181999207 21.249492645263672 90.40774321556091 C 21.44827651977539 90.3617987036705 21.646116256713867 90.31146109104156 21.842668533325195 90.25489991903305 C 21.94343376159668 90.22561258077621 22.043426513671875 90.1937626004219 22.143505096435547 90.1619126200676 C 22.33791160583496 90.09986007213593 22.530858993530273 90.0324991941452 22.722261428833008 89.95982998609543 C 22.788951873779297 89.93456965684891 22.855985641479492 89.91132283210754 22.9222469329834 89.88459813594818 C 23.167722702026367 89.78593641519547 23.40959358215332 89.67647498846054 23.648975372314453 89.56024086475372 C 23.701074600219727 89.5347974896431 23.75291633605957 89.50953716039658 23.804672241210938 89.48336160182953 C 24.058387756347656 89.35522949695587 24.308326721191406 89.21776205301285 24.553802490234375 89.06949490308762 C 24.561784744262695 89.06455266475677 24.570281982421875 89.06070870161057 24.578350067138672 89.05576646327972 C 24.578350067138672 89.05576646327972 29.21037483215332 92.58745336532593 29.21037483215332 92.58745336532593 C 33.95372200012207 96.20443964004517 40.71125793457031 95.7503028512001 44.92880630493164 91.53146177530289 C 44.92880630493164 91.53146177530289 91.50783348083496 44.9384183883667 91.50783348083496 44.9384183883667 C 95.72538185119629 40.71957731246948 96.17959785461426 33.95987659692764 92.56380844116211 29.21496170759201 Z M 23.657386779785156 85.51712381839752 C 23.560741424560547 85.59510135650635 23.458946228027344 85.66301137208939 23.35964012145996 85.73586362600327 C 23.23681640625 85.82628828287125 23.114765167236328 85.91836035251617 22.988250732421875 86.00073099136353 C 22.872121810913086 86.07596284151077 22.751873016357422 86.14204239845276 22.632654190063477 86.21050155162811 C 22.537382125854492 86.26559835672379 22.443998336791992 86.3256374001503 22.347009658813477 86.37634110450745 C 21.893566131591797 86.61265331506729 21.422183990478516 86.80320405960083 20.939558029174805 86.9459798336029 C 20.935094833374023 86.94726115465164 20.930545806884766 86.94817638397217 20.926082611083984 86.9494577050209 C 20.689189910888672 87.019198179245 20.449636459350586 87.07722371816635 20.208280563354492 87.1244495511055 C 20.183475494384766 87.12939178943634 20.158327102661133 87.13195443153381 20.133522033691406 87.13671362400055 C 19.91370964050293 87.17734980583191 19.692781448364258 87.20993196964264 19.47073745727539 87.23208051919937 C 19.42979621887207 87.23610752820969 19.388769149780273 87.23757189512253 19.347827911376953 87.24104976654053 C 19.143035888671875 87.25825607776642 18.937814712524414 87.26887273788452 18.732507705688477 87.27033710479736 C 18.677490234375 87.27070319652557 18.622644424438477 87.26850664615631 18.567626953125 87.26759141683578 C 18.378026962280273 87.26502877473831 18.1885986328125 87.25679171085358 17.999513626098633 87.24068367481232 C 17.931621551513672 87.23482620716095 17.86398696899414 87.22677218914032 17.796180725097656 87.219267308712 C 17.621858596801758 87.19986444711685 17.44805145263672 87.17497020959854 17.275102615356445 87.14421850442886 C 17.196653366088867 87.13012397289276 17.118547439575195 87.11474812030792 17.04052734375 87.09827399253845 C 16.880538940429688 87.0647765994072 16.721580505371094 87.02542173862457 16.563480377197266 86.98203986883163 C 16.477048873901367 86.95806086063385 16.390703201293945 86.93389880657196 16.30495834350586 86.9071741104126 C 16.157243728637695 86.86104655265808 16.01133155822754 86.80869543552399 15.866020202636719 86.75378167629242 C 15.775211334228516 86.71936905384064 15.68423080444336 86.68568861484528 15.594537734985352 86.6477981209755 C 15.45626449584961 86.58977258205414 15.320308685302734 86.52442520856857 15.184782028198242 86.45797955989838 C 15.093801498413086 86.4133163690567 15.00204849243164 86.37048363685608 14.912527084350586 86.3221595287323 C 14.778888702392578 86.25022250413895 14.648683547973633 86.16986536979675 14.518564224243164 86.08969128131866 C 14.433076858520508 86.03697407245636 14.346044540405273 85.98736864328384 14.262273788452148 85.93117356300354 C 14.12339973449707 85.83800321817398 13.989418029785156 85.73513144254684 13.855436325073242 85.63225966691971 C 13.786170959472656 85.5791763663292 13.71441650390625 85.5304861664772 13.646610260009766 85.47484022378922 C 13.447654724121094 85.31138026714325 13.254192352294922 85.1380358338356 13.068540573120117 84.9522442817688 C 12.882802963256836 84.7666357755661 12.709596633911133 84.57297325134277 12.546175003051758 84.3740023970604 C 12.490385055541992 84.30627542734146 12.441804885864258 84.23433840274811 12.388675689697266 84.16496402025223 C 12.28593635559082 84.03115749359131 12.183111190795898 83.89716792106628 12.089984893798828 83.75841915607452 C 12.033679962158203 83.67440110445023 11.984155654907227 83.58727127313614 11.93136978149414 83.501788854599 C 11.851203918457031 83.37146019935608 11.770952224731445 83.24149763584137 11.699026107788086 83.10769110918045 C 11.650703430175781 83.018181681633 11.60804557800293 82.92647570371628 11.563413619995117 82.83550190925598 C 11.496980667114258 82.69986492395401 11.431663513183594 82.56386184692383 11.373384475708008 82.42529612779617 C 11.335704803466797 82.33578670024872 11.302059173583984 82.24499595165253 11.26772689819336 82.15420520305634 C 11.21279525756836 82.00886678695679 11.160438537597656 81.86261314153671 11.114347457885742 81.7148951292038 C 11.087568283081055 81.62904661893845 11.063278198242188 81.54283201694489 11.039417266845703 81.45643436908722 C 10.995986938476562 81.2980996966362 10.956762313842773 81.13921588659286 10.923202514648438 80.9792338013649 C 10.906723022460938 80.90107321739197 10.89144515991211 80.82291263341904 10.877368927001953 80.744569003582 C 10.84646987915039 80.57140761613846 10.821664810180664 80.3975140452385 10.802267074584961 80.22325438261032 C 10.794713973999023 80.15534436702728 10.786731719970703 80.08780044317245 10.780981063842773 80.01970738172531 C 10.76484489440918 79.83080404996872 10.756519317626953 79.6411685347557 10.753944396972656 79.4515330195427 C 10.75308609008789 79.39643621444702 10.7508544921875 79.34170550107956 10.751197814941406 79.28660869598389 C 10.752571105957031 79.08141428232193 10.763299942016602 78.87621986865997 10.78055191040039 78.67157459259033 C 10.783985137939453 78.63038927316666 10.785358428955078 78.58902090787888 10.789478302001953 78.5480186343193 C 10.81153678894043 78.32616704702377 10.844152450561523 78.10523068904877 10.884836196899414 77.88539260625839 C 10.889556884765625 77.86049836874008 10.892217636108398 77.83523803949356 10.897109985351562 77.81034380197525 C 10.944145202636719 77.56890630722046 11.002424240112305 77.32929927110672 11.07194709777832 77.09243792295456 C 11.073320388793945 77.08786177635193 11.074092864990234 77.0832856297493 11.075380325317383 77.07889252901077 C 11.218116760253906 76.5962005853653 11.408660888671875 76.12467443943024 11.644866943359375 75.67108678817749 C 11.695507049560547 75.57407248020172 11.75558853149414 75.48071908950806 11.810606002807617 75.38535219430923 C 11.879270553588867 75.26618933677673 11.945274353027344 75.1457451581955 12.020547866821289 75.02951103448868 C 12.102773666381836 74.90302634239197 12.194955825805664 74.78093475103378 12.285249710083008 74.65811097621918 C 12.358034133911133 74.55871707201004 12.425840377807617 74.45694357156754 12.503860473632812 74.36029535531998 C 12.503860473632812 74.36029535531998 12.53587532043457 74.31965917348862 12.53587532043457 74.31965917348862 C 12.702043533325195 74.11647826433182 12.879112243652344 73.91933786869049 13.068540573120117 73.72988539934158 C 13.068540573120117 73.72988539934158 73.71195602416992 13.068302989006042 73.71195602416992 13.068302989006042 C 73.90104103088379 12.87903356552124 74.09793663024902 12.702028214931488 74.30084037780762 12.53600561618805 C 74.30084037780762 12.53600561618805 74.34341239929199 12.502508223056793 74.34341239929199 12.502508223056793 C 74.43842697143555 12.425812005996704 74.53850555419922 12.359183311462402 74.63609504699707 12.287429332733154 C 74.76037788391113 12.196089446544647 74.88380241394043 12.102736055850983 75.01177597045898 12.01963323354721 C 75.12447166442871 11.946597933769226 75.24120140075684 11.882714927196503 75.35664367675781 11.816086232662201 C 75.45552062988281 11.75860983133316 75.55250930786133 11.696374237537384 75.65310287475586 11.643840074539185 C 76.10611724853516 11.40789395570755 76.5768985748291 11.217526257038116 77.05892372131348 11.074933528900146 C 77.06604766845703 11.072920024394989 77.07334327697754 11.071638703346252 77.08038139343262 11.06944215297699 C 77.31469917297363 11.00079995393753 77.55159187316895 10.94295746088028 77.79011535644531 10.896463811397552 C 77.81672286987305 10.891155481338501 77.84350204467773 10.888226747512817 77.87010955810547 10.883467555046082 C 78.08820533752441 10.843014419078827 78.30741691589355 10.810615301132202 78.52757263183594 10.788649797439575 C 78.56988716125488 10.784439742565155 78.61220169067383 10.782975375652313 78.65460205078125 10.779314458370209 C 78.85819244384766 10.762291193008423 79.06204032897949 10.75167453289032 79.26614570617676 10.750393211841583 C 79.32193565368652 10.749844074249268 79.37755393981934 10.752223670482635 79.4333438873291 10.752955853939056 C 79.62217140197754 10.755701541900635 79.81099891662598 10.76393860578537 79.99931144714355 10.78004664182663 C 80.06771850585938 10.785904109477997 80.13578224182129 10.793775081634521 80.20401763916016 10.801463007926941 C 80.37799644470215 10.82068282365799 80.5513744354248 10.8455770611763 80.7238941192627 10.876328766345978 C 80.8026008605957 10.890606343746185 80.88105010986328 10.905982196331024 80.9593276977539 10.922456324100494 C 81.11905860900879 10.95595371723175 81.27767372131348 10.994942486286163 81.4354305267334 11.038507401943207 C 81.5222053527832 11.062486410140991 81.60889434814453 11.086831510066986 81.69489669799805 11.113739252090454 C 81.8422679901123 11.159683763980865 81.98783683776855 11.211851835250854 82.13280487060547 11.266582548618317 C 82.2238712310791 11.300995171070099 82.31519508361816 11.334858655929565 82.4051456451416 11.372749149799347 C 82.54341888427734 11.430957734584808 82.67911720275879 11.496305108070374 82.81447219848633 11.562567710876465 C 82.90553855895996 11.60723090171814 82.9972915649414 11.650063633918762 83.08689880371094 11.698387742042542 C 83.22053718566895 11.770324766635895 83.35057067871094 11.850681900978088 83.48077583312988 11.930855989456177 C 83.56634902954102 11.983756244182587 83.65338134765625 12.033178627490997 83.73732376098633 12.089556753635406 C 83.87602615356445 12.18254405260086 84.01000785827637 12.285415828227997 84.1439037322998 12.388104557991028 C 84.21316909790039 12.441370904445648 84.28500938415527 12.490061104297638 84.35281562805176 12.545707046985626 C 84.55177116394043 12.709167003631592 84.7452335357666 12.88251143693924 84.93097114562988 13.068302989006042 C 85.11670875549316 13.25391149520874 85.28982925415039 13.447574019432068 85.45325088500977 13.646544873714447 C 85.50904083251953 13.714454889297485 85.55753517150879 13.786208868026733 85.61066436767578 13.855400204658508 C 85.71357536315918 13.989389777183533 85.8164005279541 14.123562395572662 85.9094409942627 14.262311160564423 C 85.96574592590332 14.346146166324615 86.01518440246582 14.433275997638702 86.06788444519043 14.518758416175842 C 86.14813613891602 14.648904025554657 86.2283878326416 14.779049634933472 86.30048561096191 14.91285616159439 C 86.34880828857422 15.002548635005951 86.39155197143555 15.094254612922668 86.43626976013184 15.18541145324707 C 86.50253105163574 15.320865392684937 86.56767654418945 15.456502377986908 86.62578392028809 15.594702005386353 C 86.6638069152832 15.684760570526123 86.69762420654297 15.776283502578735 86.73212814331055 15.867440342903137 C 86.78680229187012 16.012412667274475 86.83890151977539 16.15793412923813 86.88490676879883 16.30510300397873 C 86.91185760498047 16.39131760597229 86.93623352050781 16.47789829969406 86.96018028259277 16.564845085144043 C 87.00343894958496 16.722630620002747 87.04266357421875 16.881331384181976 87.07613754272461 17.040947377681732 C 87.09261703491211 17.11929100751877 87.10806655883789 17.19781768321991 87.12214279174805 17.276527404785156 C 87.15295600891113 17.449139654636383 87.17776107788086 17.622667133808136 87.19707298278809 17.7965607047081 C 87.2047119140625 17.864836812019348 87.21269416809082 17.93292987346649 87.21853065490723 18.001389026641846 C 87.23458099365234 18.189743220806122 87.24290657043457 18.378646552562714 87.24548149108887 18.567549884319305 C 87.24633979797363 18.6233788728714 87.24857139587402 18.679024815559387 87.24822807312012 18.73485380411148 C 87.24676895141602 18.93913298845291 87.23612594604492 19.143229126930237 87.21904563903809 19.346959173679352 C 87.21552658081055 19.389059722423553 87.21406745910645 19.43134331703186 87.20994758605957 19.473260819911957 C 87.1878890991211 19.693831086158752 87.15544509887695 19.91312003135681 87.11510467529297 20.131493747234344 C 87.1102123260498 20.158035397529602 87.1072940826416 20.18457704782486 87.10214424133301 20.211118698120117 C 87.05553817749023 20.44981050491333 86.99777412414551 20.68667185306549 86.92919540405273 20.920970559120178 C 86.92704963684082 20.928292393684387 86.92576217651367 20.935614228248596 86.92370223999023 20.942569971084595 C 86.78105163574219 21.42489582300186 86.59076499938965 21.895872831344604 86.35498809814453 22.348911345005035 C 86.30228805541992 22.449403524398804 86.24014663696289 22.546600878238678 86.18281173706055 22.6454456448555 C 86.11612129211426 22.760947585105896 86.0522632598877 22.877547800540924 85.97930717468262 22.990304052829742 C 85.89613723754883 23.1184361577034 85.80292510986328 23.241992115974426 85.71151542663574 23.366280257701874 C 85.63993263244629 23.46384370326996 85.57315635681152 23.563969790935516 85.49659538269043 23.658970594406128 C 85.49659538269043 23.658970594406128 85.4630355834961 23.701620280742645 85.4630355834961 23.701620280742645 C 85.29695320129395 23.90461814403534 85.12014198303223 24.101392447948456 84.93097114562988 24.290661871433258 C 84.93097114562988 24.290661871433258 24.2874698638916 84.9522442817688 24.2874698638916 84.9522442817688 C 24.098127365112305 85.14187979698181 23.901145935058594 85.31888514757156 23.698070526123047 85.48509079217911 C 23.698070526123047 85.48509079217911 23.657386779785156 85.51712381839752 23.657386779785156 85.51712381839752 Z M 8.916996002197266 55.50895094871521 C 8.916996002197266 55.50895094871521 55.49610900878906 8.915724515914917 55.49610900878906 8.915724515914917 C 58.50490379333496 5.906084418296814 63.32584190368652 5.582459330558777 66.70980262756348 8.162307739257812 C 66.70980262756348 8.162307739257812 70.71303176879883 11.215146660804749 70.71303176879883 11.215146660804749 C 70.71303176879883 11.215146660804749 11.215627670288086 70.73049587011337 11.215627670288086 70.73049587011337 C 11.215627670288086 70.73049587011337 8.164346694946289 66.72600150108337 8.164346694946289 66.72600150108337 C 5.584877014160156 63.34075129032135 5.908287048339844 58.51859104633331 8.916996002197266 55.50895094871521 Z M 42.50305938720703 89.10500580072403 C 39.49426460266113 92.11464589834213 34.673927307128906 92.43845403194427 31.289623260498047 89.85823953151703 C 31.289623260498047 89.85823953151703 27.28605079650879 86.8057667016983 27.28605079650879 86.8057667016983 C 27.28605079650879 86.8057667016983 86.78354072570801 27.29041749238968 86.78354072570801 27.29041749238968 C 86.78354072570801 27.29041749238968 89.83576583862305 31.295277953147888 89.83576583862305 31.295277953147888 C 89.83576583862305 31.295277953147888 89.83542251586914 31.294911861419678 89.83542251586914 31.294911861419678 C 92.41489219665527 34.6801620721817 92.09088134765625 39.50232231616974 89.08217239379883 42.51196241378784 C 89.08217239379883 42.51196241378784 42.50305938720703 89.10500580072403 42.50305938720703 89.10500580072403 Z M 71.07188987731934 30.276993811130524 C 73.7050895690918 27.642414689064026 74.4836597442627 24.462541937828064 74.5305233001709 24.26265585422516 C 74.61317825317383 23.908645153045654 74.39370918273926 23.554451406002045 74.03982925415039 23.47189772129059 C 73.68552017211914 23.389160990715027 73.33215522766113 23.609182119369507 73.24941444396973 23.962643682956696 C 73.23379325866699 24.029272377490997 71.62086296081543 30.618008255958557 65.06185340881348 32.152847826480865 C 57.722299575805664 33.87018412351608 55.82853126525879 41.149552047252655 55.75832176208496 41.43382227420807 C 55.74012565612793 41.496790051460266 53.85622787475586 47.750551998615265 48.12934684753418 49.09044772386551 C 41.7736701965332 50.57732927799225 39.63657188415527 57.199196457862854 39.484737396240234 57.69579988718033 C 39.3676643371582 58.0137505531311 36.98672103881836 64.27977657318115 31.711566925048828 65.51313960552216 C 25.598705291748047 66.94327694177628 23.563316345214844 73.44158816337585 23.479717254638672 73.71743828058243 C 23.374317169189453 74.06485933065414 23.570354461669922 74.43150019645691 23.917539596557617 74.53748375177383 C 24.264638900756836 74.64310121536255 24.63259506225586 74.44779127836227 24.73842430114746 74.10018718242645 C 24.757049560546875 74.03959900140762 26.647127151489258 68.04942309856415 32.01111602783203 66.79482674598694 C 38.10363578796387 65.36853337287903 40.62534141540527 58.418464958667755 40.7394962310791 58.09209418296814 C 40.75872230529785 58.028211176395416 42.71858024597168 51.70763748884201 48.429067611694336 50.37176877260208 C 54.8953800201416 48.8588947057724 56.93780708312988 42.08967560529709 57.0281867980957 41.777033269405365 C 57.04543876647949 41.70930629968643 58.79432487487793 34.97065585851669 65.36166000366211 33.43416887521744 C 67.86173629760742 32.84915429353714 69.7133617401123 31.63592630624771 71.07188987731934 30.276993811130524 Z"/></g></svg>